# xmcd CD database file
#
# Track frame offsets:
#	150
#	19500
#	32910
#	46405
#	59507
#	76022
#	88642
#	101227
#	114185
#	126447
#	137222
#	148987
#	165450
#	188982
#	200910
#
# Disc length: 2874 seconds
#
# Revision: 0
# Processed by: cddbd v1.5.1PL0 Copyright (c) Steve Scherf et al.
# Submitted via: CDex 1.51
#
DISCID=d80b380f
DTITLE=Bob Scobey - Volume Two
DYEAR=1997
DGENRE=Jazz
TTITLE0=Blue Turning Grey Over You
TTITLE1=Five Foot Two
TTITLE2=I'm confessin' That I Love You
TTITLE3=In New Orleans
TTITLE4=IT Ain't No Fault Of Mine
TTITLE5=Maple Leaf Rag
TTITLE6=Sugar Blues
TTITLE7=I'm Sorry I made You Cry
TTITLE8=NoBody's Sweetheart Now
TTITLE9=Eh, La Bas
TTITLE10=Under The Double Eagle
TTITLE11=Sleepy Time Down South
TTITLE12=Drummer's Blues
TTITLE13=Wabash Blues
TTITLE14=Bourbon Street Parade
EXTD=YEAR: 1997
EXTT0=
EXTT1=
EXTT2=
EXTT3=
EXTT4=
EXTT5=
EXTT6=
EXTT7=
EXTT8=
EXTT9=
EXTT10=
EXTT11=
EXTT12=
EXTT13=
EXTT14=
PLAYORDER=
